<?xml version="1.0" encoding="utf-8"?>
<!-- Generator: Adobe Illustrator 17.0.0, SVG Export Plug-In . SVG Version: 6.00 Build 0)  -->
<!DOCTYPE svg PUBLIC "-//W3C//DTD SVG 1.1//EN" "http://www.w3.org/Graphics/SVG/1.1/DTD/svg11.dtd">
<svg version="1.1" id="Layer_1" xmlns="http://www.w3.org/2000/svg" xmlns:xlink="http://www.w3.org/1999/xlink" x="0px" y="0px"
	 width="27.813px" height="27.814px" viewBox="3.582 2.581 27.813 27.814" enable-background="new 3.582 2.581 27.813 27.814"
	 xml:space="preserve">
<g>
	<path fill="#7f1b18" d="M27.322,6.654c-5.422-5.422-14.245-5.422-19.667,0C2.233,12.077,2.233,20.9,7.655,26.322s14.245,5.422,19.667-0.001
		C32.745,20.899,32.745,12.076,27.322,6.654z M9.815,24.162C5.584,19.93,5.584,13.046,9.816,8.814
		c4.231-4.231,11.115-4.231,15.347,0s4.231,11.115,0,15.347C20.931,28.392,14.046,28.393,9.815,24.162z"/>
	<path fill="#7f1b18" d="M25.216,16.488c0-0.844-0.684-1.527-1.527-1.527l-4.672,0v-4.672c0-0.844-0.684-1.527-1.527-1.527
		c-0.844,0-1.527,0.684-1.527,1.527l0,4.672l-4.672,0c-0.844,0-1.527,0.684-1.527,1.527c0,0.422,0.171,0.804,0.447,1.08
		c0.276,0.276,0.658,0.447,1.08,0.447l4.672-0.001v4.672c0,0.422,0.171,0.804,0.447,1.08c0.276,0.276,0.658,0.447,1.08,0.447
		c0.844,0,1.527-0.684,1.527-1.527l0-4.672l4.672,0C24.532,18.015,25.216,17.332,25.216,16.488z"/>
</g>
</svg>
