<?xml version="1.0" encoding="utf-8"?>
<!-- Generator: Adobe Illustrator 17.0.0, SVG Export Plug-In . SVG Version: 6.00 Build 0)  -->
<!DOCTYPE svg PUBLIC "-//W3C//DTD SVG 1.1//EN" "http://www.w3.org/Graphics/SVG/1.1/DTD/svg11.dtd">
<svg version="1.1" id="Layer_1" xmlns="http://www.w3.org/2000/svg" xmlns:xlink="http://www.w3.org/1999/xlink" x="0px" y="0px"
	 width="48.615px" height="48.615px" viewBox="0 51.385 48.615 48.615" enable-background="new 0 51.385 48.615 48.615"
	 xml:space="preserve">
<path fill="#7f1b18" d="M48.615,95.988V84.929c0-1.879-1.524-3.403-3.403-3.403s-3.403,1.524-3.403,3.403v3.452l-7.872-7.872
	c-1.329-1.329-3.484-1.329-4.812,0c-1.329,1.329-1.329,3.484,0,4.813l7.872,7.872h-3.452c-1.879,0-3.403,1.524-3.403,3.403
	S31.665,100,33.544,100h11.059c1.095,0,2.246-0.09,3.084-0.928C48.526,98.235,48.615,97.092,48.615,95.988z"/>
<path fill="#7f1b18" d="M0,95.988V84.929c0-1.879,1.524-3.403,3.403-3.403s3.403,1.524,3.403,3.403v3.452l7.837-7.872
	c1.329-1.329,3.466-1.329,4.795,0c1.329,1.329,1.32,3.484-0.009,4.813l-7.88,7.871h3.452c1.879,0,3.403,1.524,3.403,3.403
	S16.881,100,15.002,100H3.943c-1.095,0-2.211-0.09-3.05-0.928C0.055,98.235,0,97.092,0,95.988z"/>
<path fill="#7f1b18" d="M48.615,55.328v11.059c0,1.879-1.524,3.403-3.403,3.403s-3.403-1.524-3.403-3.403v-3.452l-7.872,7.872
	c-1.329,1.329-3.484,1.329-4.812,0c-1.329-1.329-1.329-3.449,0-4.778l7.872-7.838h-3.452c-1.879,0-3.403-1.524-3.403-3.403
	c0-1.879,1.524-3.403,3.403-3.403h11.059c1.095,0,2.246,0.055,3.084,0.893C48.526,53.116,48.615,54.224,48.615,55.328z"/>
<path fill="#7f1b18" d="M0,55.328v11.059c0,1.879,1.524,3.403,3.403,3.403s3.403-1.524,3.403-3.403v-3.452l7.837,7.872
	c1.329,1.329,3.466,1.329,4.795,0c1.329-1.329,1.32-3.449-0.009-4.778l-7.88-7.838h3.452c1.879,0,3.403-1.524,3.403-3.403
	c0-1.879-1.524-3.403-3.403-3.403H3.943c-1.095,0-2.211,0.055-3.05,0.893C0.055,53.116,0,54.224,0,55.328z"/>
</svg>
