<?xml version="1.0" encoding="utf-8"?>
<!-- Generator: Adobe Illustrator 17.0.0, SVG Export Plug-In . SVG Version: 6.00 Build 0)  -->
<!DOCTYPE svg PUBLIC "-//W3C//DTD SVG 1.1//EN" "http://www.w3.org/Graphics/SVG/1.1/DTD/svg11.dtd">
<svg version="1.1" id="Layer_1" xmlns="http://www.w3.org/2000/svg" xmlns:xlink="http://www.w3.org/1999/xlink" x="0px" y="0px"
	 width="27.813px" height="27.814px" viewBox="3.582 2.581 27.813 27.814" enable-background="new 3.582 2.581 27.813 27.814"
	 xml:space="preserve">
<g>
	<path fill="#7f1b18" d="M17.489,2.581c-7.668,0-13.907,6.238-13.907,13.907c0,7.669,6.238,13.907,13.907,13.907s13.907-6.239,13.907-13.907
		C31.395,8.819,25.157,2.581,17.489,2.581z M17.489,27.34c-5.984,0-10.852-4.868-10.852-10.852c0-5.984,4.868-10.852,10.852-10.852
		S28.34,10.504,28.34,16.488C28.34,22.472,23.472,27.34,17.489,27.34z"/>
	<path fill="#7f1b18" d="M22.953,11.024c-0.596-0.596-1.564-0.596-2.16,0l-3.304,3.303l-3.303-3.303c-0.596-0.596-1.564-0.596-2.16,0
		c-0.596,0.596-0.596,1.564,0,2.16l3.303,3.304l-3.303,3.304c-0.596,0.596-0.596,1.564,0,2.16c0.298,0.298,0.689,0.448,1.08,0.448
		s0.782-0.149,1.08-0.448l3.303-3.304l3.303,3.303c0.298,0.298,0.689,0.448,1.08,0.448c0.391,0,0.782-0.149,1.08-0.448
		c0.596-0.596,0.596-1.564,0-2.16l-3.303-3.303l3.303-3.303C23.549,12.588,23.549,11.62,22.953,11.024z"/>
</g>
</svg>
