<?xml version="1.0" encoding="utf-8"?>
<!-- Generator: Adobe Illustrator 17.0.0, SVG Export Plug-In . SVG Version: 6.00 Build 0)  -->
<!DOCTYPE svg PUBLIC "-//W3C//DTD SVG 1.1//EN" "http://www.w3.org/Graphics/SVG/1.1/DTD/svg11.dtd">
<svg version="1.1" id="Layer_1" xmlns="http://www.w3.org/2000/svg" xmlns:xlink="http://www.w3.org/1999/xlink" x="0px" y="0px"
	 width="27.813px" height="27.814px" viewBox="3.582 2.581 27.813 27.814" enable-background="new 3.582 2.581 27.813 27.814"
	 xml:space="preserve">
<g id="Captions">
</g>
<g id="Your_Icon">
	<path fill="#ffffff" d="M24.705,16.954c0.027-0.027,0.052-0.055,0.075-0.081c0.012-0.015,0.024-0.03,0.036-0.045
		c0.006-0.008,0.011-0.015,0.017-0.023c0.166-0.223,0.265-0.499,0.265-0.799c0-0.3-0.099-0.575-0.265-0.799
		c-0.007-0.01-0.015-0.021-0.023-0.03c-0.01-0.012-0.019-0.025-0.03-0.037c-0.023-0.028-0.048-0.057-0.077-0.085L18.73,9.08
		c-0.525-0.525-1.376-0.525-1.902,0c-0.526,0.525-0.526,1.376,0,1.902l3.678,3.678l-10.201,0c-0.743,0-1.345,0.602-1.345,1.344
		c0,0.742,0.602,1.344,1.345,1.344l10.201,0l-3.678,3.678c-0.525,0.526-0.525,1.377,0,1.903c0.525,0.525,1.376,0.525,1.902,0
		l5.974-5.973C24.704,16.956,24.705,16.955,24.705,16.954z"/>
	<path fill="#ffffff" d="M3.582,16.005c0,7.426,6.021,13.447,13.448,13.447s13.447-6.021,13.448-13.448c0-7.427-6.021-13.448-13.448-13.448
		C9.603,2.558,3.582,8.578,3.582,16.005z M27.788,16.005c0,5.941-4.817,10.758-10.758,10.758c-5.941,0-10.758-4.817-10.758-10.758
		c0-5.941,4.817-10.758,10.758-10.758C22.971,5.247,27.788,10.064,27.788,16.005z"/>
</g>
</svg>
