<?xml version="1.0" encoding="utf-8"?>
<!-- Generator: Adobe Illustrator 17.0.0, SVG Export Plug-In . SVG Version: 6.00 Build 0)  -->
<!DOCTYPE svg PUBLIC "-//W3C//DTD SVG 1.1//EN" "http://www.w3.org/Graphics/SVG/1.1/DTD/svg11.dtd">
<svg version="1.1" id="Layer_1" xmlns="http://www.w3.org/2000/svg" xmlns:xlink="http://www.w3.org/1999/xlink" x="0px" y="0px"
	 width="53.036px" height="53.042px" viewBox="0 46.957 53.036 53.042" enable-background="new 0 46.957 53.036 53.042"
	 xml:space="preserve">
<path fill="#7f1b18" d="M49.591,50.401c-2.22-2.22-5.172-3.444-8.311-3.444s-6.091,1.224-8.311,3.444l-6.171,6.17
	c-3.658,3.658-4.386,9.144-2.204,13.54l-1.442,1.443c-1.607-0.802-3.383-1.236-5.231-1.236c-3.14,0-6.092,1.224-8.312,3.445
	l-6.171,6.171c-4.583,4.581-4.583,12.039,0,16.623c2.221,2.221,5.172,3.442,8.311,3.442s6.092-1.222,8.313-3.442l6.169-6.171
	c2.221-2.219,3.444-5.172,3.444-8.311c0-1.848-0.433-3.625-1.234-5.231l1.44-1.44c1.606,0.8,3.384,1.234,5.232,1.234
	c3.139,0,6.089-1.223,8.31-3.444l6.171-6.17c2.22-2.221,3.443-5.172,3.443-8.312C53.036,55.573,51.811,52.62,49.591,50.401z
	 M23.262,82.073c0,1.427-0.556,2.769-1.566,3.78l-6.17,6.17c-1.009,1.009-2.351,1.564-3.779,1.564s-2.769-0.555-3.777-1.564
	c-2.083-2.084-2.083-5.473,0-7.556l6.17-6.171c1.008-1.008,2.351-1.565,3.778-1.565c0.017,0,0.031,0.006,0.048,0.006l-5.778,5.777
	c-1.459,1.461-1.459,3.83,0,5.291c0.731,0.73,1.687,1.094,2.646,1.094c0.956,0,1.914-0.366,2.645-1.094l5.779-5.779
	C23.258,82.042,23.262,82.057,23.262,82.073z M45.059,62.492l-6.172,6.169c-1.009,1.009-2.351,1.565-3.777,1.565
	c-0.018,0-0.032-0.004-0.049-0.004l5.778-5.779c1.461-1.461,1.461-3.828,0-5.289c-1.461-1.46-3.828-1.46-5.288,0l-5.777,5.777
	c-0.013-1.386,0.504-2.772,1.557-3.825l6.171-6.17c1.01-1.008,2.351-1.565,3.779-1.565c1.426,0,2.769,0.557,3.779,1.565
	c1.007,1.008,1.564,2.351,1.564,3.778C46.623,60.14,46.066,61.48,45.059,62.492z"/>
</svg>
